<?xml version="1.0" encoding="UTF-8"?><svg id="Layer_2" xmlns="http://www.w3.org/2000/svg" width="1010.65" height="282.3" viewBox="0 0 1010.65 282.3"><defs><style>.cls-1{fill:#2233a5;}.cls-2{fill:#ffb81c;}.cls-3{fill:#9adbe8;}.cls-4{fill:#ee5a25;}</style></defs><g id="Layer_1-2"><g id="Layer_1-2"><path class="cls-1" d="M39.54,41.66l-7.5-22.42-7.5,22.42h15.01ZM20.3,55.04l-4.23,12.8H0L24.05.58h16.07l24.05,67.35h-16.07l-4.23-12.8h-23.57v-.1Z"/><path class="cls-1" d="M108.53,53.5c4.23,0,7.6-1.06,10.1-3.08s4.04-4.43,4.91-7.12l16.07,1.06c-.77,3.18-2.02,6.25-3.85,9.24-1.83,2.89-3.94,5.48-6.64,7.6-2.6,2.21-5.68,3.94-9.14,5.2-3.46,1.35-7.22,2.02-11.35,2.02-4.52,0-8.85-.87-12.89-2.6s-7.5-4.14-10.49-7.31c-2.98-3.08-5.39-6.74-7.12-10.87-1.73-4.14-2.6-8.66-2.6-13.47s.87-9.24,2.6-13.37c1.73-4.14,4.14-7.79,7.12-10.87,2.98-3.08,6.54-5.48,10.49-7.31,4.04-1.73,8.27-2.6,12.89-2.6,3.94,0,7.7.67,11.06,2.02,3.37,1.35,6.35,3.08,8.95,5.2,2.6,2.21,4.81,4.71,6.54,7.6,1.83,2.89,3.08,5.97,3.85,9.24l-16.07,1.06c-.38-1.35-1.06-2.6-1.83-3.85-.77-1.25-1.83-2.31-2.98-3.18-1.25-.96-2.6-1.64-4.23-2.21-1.64-.58-3.37-.87-5.39-.87-2.41,0-4.71.48-6.83,1.44-2.12.96-4.04,2.31-5.58,4.04-1.64,1.73-2.89,3.75-3.75,6.06-.96,2.31-1.35,4.91-1.35,7.7s.48,5.39,1.35,7.7c.96,2.31,2.21,4.43,3.75,6.06,1.64,1.73,3.46,3.08,5.58,4.04,2.12.96,4.43,1.44,6.83,1.44"/><path class="cls-1" d="M187.62,53.5c4.23,0,7.6-1.06,10.1-3.08,2.5-2.02,4.04-4.43,4.91-7.12l16.07,1.06c-.77,3.18-2.02,6.25-3.85,9.24-1.83,2.89-3.94,5.48-6.64,7.6-2.6,2.21-5.68,3.94-9.14,5.2-3.46,1.35-7.22,2.02-11.35,2.02-4.52,0-8.85-.87-12.89-2.6-4.04-1.73-7.5-4.14-10.49-7.31-2.98-3.08-5.39-6.74-7.12-10.87-1.73-4.14-2.6-8.66-2.6-13.47s.87-9.24,2.6-13.37c1.73-4.14,4.14-7.79,7.12-10.87,2.98-3.08,6.54-5.48,10.49-7.31,4.04-1.73,8.27-2.6,12.89-2.6,3.94,0,7.7.67,11.06,2.02,3.37,1.35,6.35,3.08,8.95,5.2,2.6,2.21,4.81,4.71,6.54,7.6,1.83,2.89,3.08,5.97,3.85,9.24l-16.07,1.06c-.38-1.35-1.06-2.6-1.83-3.85-.77-1.25-1.83-2.31-2.98-3.18-1.25-.96-2.6-1.64-4.23-2.21-1.64-.58-3.37-.87-5.39-.87-2.41,0-4.71.48-6.83,1.44-2.12.96-4.04,2.31-5.58,4.04-1.64,1.73-2.89,3.75-3.75,6.06-.96,2.31-1.35,4.91-1.35,7.7s.48,5.39,1.35,7.7c.96,2.31,2.21,4.43,3.75,6.06,1.64,1.73,3.46,3.08,5.58,4.04,2.12.96,4.43,1.44,6.83,1.44"/><rect class="cls-1" x="237.94" y=".58" width="15.49" height="67.35"/><path class="cls-1" d="M324.53,34.25c0-2.79-.48-5.39-1.35-7.7-.96-2.31-2.21-4.43-3.75-6.06-1.64-1.73-3.46-3.08-5.58-4.04-2.12-.96-4.43-1.44-6.83-1.44s-4.71.48-6.83,1.44c-2.12.96-4.04,2.31-5.58,4.04-1.64,1.73-2.89,3.75-3.75,6.06-.96,2.31-1.35,4.91-1.35,7.7s.48,5.39,1.35,7.7c.96,2.31,2.21,4.43,3.75,6.06,1.64,1.73,3.46,3.08,5.58,4.04,2.12.96,4.43,1.44,6.83,1.44s4.71-.48,6.83-1.44c2.12-.96,4.04-2.31,5.58-4.04,1.64-1.73,2.89-3.75,3.75-6.06.96-2.31,1.35-4.91,1.35-7.7M340.02,34.25c0,4.81-.87,9.33-2.6,13.47-1.73,4.14-4.14,7.79-7.12,10.87-2.98,3.08-6.54,5.48-10.49,7.31-4.04,1.73-8.37,2.6-12.89,2.6s-8.85-.87-12.89-2.6c-4.04-1.73-7.5-4.14-10.49-7.31-2.98-3.08-5.39-6.74-7.12-10.87-1.73-4.14-2.6-8.66-2.6-13.47s.87-9.24,2.6-13.37c1.73-4.14,4.14-7.79,7.12-10.87,2.98-3.08,6.54-5.48,10.49-7.31C298.07.87,302.31,0,306.93,0s8.85.87,12.89,2.6c4.04,1.73,7.5,4.14,10.49,7.31,2.98,3.08,5.39,6.74,7.12,10.87,1.73,4.14,2.6,8.66,2.6,13.37"/><polygon class="cls-1" points="417 .58 417 67.93 403.14 67.93 375.91 28.38 375.91 67.93 360.33 67.93 360.33 .58 374.28 .58 401.51 40.12 401.51 .58 417 .58"/><path class="cls-1" d="M54.55,141.15c0-2.79-.48-5.39-1.35-7.7-.96-2.31-2.21-4.43-3.75-6.06-1.64-1.73-3.46-3.08-5.58-4.04-2.12-.96-4.43-1.44-6.83-1.44s-4.71.48-6.83,1.44c-2.12.96-4.04,2.31-5.58,4.04-1.64,1.73-2.89,3.75-3.75,6.06-.96,2.31-1.35,4.91-1.35,7.7s.48,5.39,1.35,7.7c.96,2.31,2.21,4.43,3.75,6.06,1.64,1.73,3.46,3.08,5.58,4.04,2.12.96,4.43,1.44,6.83,1.44s4.71-.48,6.83-1.44c2.12-.96,4.04-2.31,5.58-4.04,1.64-1.73,2.89-3.75,3.75-6.06.96-2.31,1.35-4.91,1.35-7.7M70.04,141.15c0,4.81-.87,9.33-2.6,13.47-1.73,4.14-4.14,7.79-7.12,10.87-2.98,3.08-6.54,5.48-10.49,7.31-4.04,1.73-8.37,2.6-12.89,2.6s-8.85-.87-12.89-2.6c-4.04-1.73-7.5-4.14-10.49-7.31-2.98-3.08-5.39-6.74-7.12-10.87-1.73-4.14-2.6-8.66-2.6-13.47s.87-9.24,2.6-13.37c1.73-4.14,4.14-7.79,7.12-10.87,2.98-3.08,6.54-5.48,10.49-7.31,4.04-1.73,8.27-2.6,12.89-2.6s8.85.87,12.89,2.6c4.04,1.73,7.5,4.14,10.49,7.31,2.98,3.08,5.39,6.74,7.12,10.87,1.73,4.14,2.6,8.66,2.6,13.37"/><path class="cls-1" d="M116.61,138.45c2.41,0,4.43-.77,6.06-2.41,1.64-1.64,2.5-3.46,2.5-5.58s-.87-4.04-2.5-5.58c-1.64-1.64-3.66-2.41-6.06-2.41h-10.68v16.07h10.68v-.1ZM116.61,107.47c3.46,0,6.74.58,9.62,1.73,2.89,1.15,5.48,2.79,7.6,4.91,2.12,2.12,3.85,4.52,5,7.31,1.15,2.79,1.83,5.77,1.83,8.95s-.58,6.16-1.83,8.95c-1.25,2.79-2.89,5.2-5,7.31-2.12,2.12-4.62,3.75-7.6,4.91-2.89,1.15-6.16,1.73-9.62,1.73h-10.68v21.36h-15.49v-67.35h26.17v.19Z"/><path class="cls-1" d="M187.14,138.45c2.41,0,4.43-.77,6.06-2.41,1.64-1.64,2.5-3.46,2.5-5.58s-.87-4.04-2.5-5.58c-1.64-1.64-3.66-2.41-6.06-2.41h-10.68v16.07h10.68v-.1ZM187.14,107.47c3.46,0,6.74.58,9.62,1.73,2.89,1.15,5.48,2.79,7.6,4.91,2.12,2.12,3.85,4.52,5,7.31,1.15,2.79,1.83,5.77,1.83,8.95s-.58,6.16-1.83,8.95c-1.25,2.79-2.89,5.2-5,7.31-2.12,2.12-4.62,3.75-7.6,4.91-2.89,1.15-6.16,1.73-9.62,1.73h-10.68v21.36h-15.49v-67.35h26.17v.19Z"/><path class="cls-1" d="M279.12,141.15c0-2.79-.48-5.39-1.35-7.7-.96-2.31-2.21-4.43-3.75-6.06-1.64-1.73-3.46-3.08-5.58-4.04-2.12-.96-4.43-1.44-6.83-1.44s-4.71.48-6.83,1.44c-2.12.96-4.04,2.31-5.58,4.04-1.64,1.73-2.89,3.75-3.75,6.06-.96,2.31-1.35,4.91-1.35,7.7s.48,5.39,1.35,7.7c.96,2.31,2.21,4.43,3.75,6.06,1.64,1.73,3.46,3.08,5.58,4.04,2.12.96,4.43,1.44,6.83,1.44s4.71-.48,6.83-1.44c2.12-.96,4.04-2.31,5.58-4.04,1.64-1.73,2.89-3.75,3.75-6.06.96-2.31,1.35-4.91,1.35-7.7M294.61,141.15c0,4.81-.87,9.33-2.6,13.47-1.73,4.14-4.14,7.79-7.12,10.87-2.98,3.08-6.54,5.48-10.49,7.31-4.04,1.73-8.37,2.6-12.89,2.6s-8.85-.87-12.89-2.6c-4.04-1.73-7.5-4.14-10.49-7.31-2.98-3.08-5.39-6.74-7.12-10.87-1.73-4.14-2.6-8.66-2.6-13.47s.87-9.24,2.6-13.37c1.73-4.14,4.14-7.79,7.12-10.87,2.98-3.08,6.54-5.48,10.49-7.31,4.04-1.73,8.27-2.6,12.89-2.6s8.85.87,12.89,2.6c4.04,1.73,7.5,4.14,10.49,7.31,2.98,3.08,5.39,6.74,7.12,10.87,1.73,4.14,2.6,8.66,2.6,13.37"/><path class="cls-1" d="M342.24,137.4c2.69,0,4.81-.67,6.35-2.12,1.54-1.44,2.21-3.18,2.21-5.39s-.77-3.94-2.21-5.39c-1.54-1.44-3.56-2.12-6.35-2.12h-11.74v15.01h11.74ZM342.24,107.47c3.46,0,6.64.58,9.62,1.73,2.89,1.15,5.39,2.69,7.41,4.62,2.12,1.92,3.66,4.23,4.81,6.83,1.15,2.6,1.73,5.39,1.73,8.27,0,3.75-.67,6.93-2.02,9.53-1.35,2.6-2.79,4.62-4.43,6.25-1.64,1.64-3.75,3.18-6.45,4.52l15.01,25.69h-17.13l-12.32-22.42h-7.99v22.42h-15.49v-67.35h27.23v-.1Z"/><polygon class="cls-1" points="414.88 174.82 399.39 174.82 399.39 122.48 380.15 122.48 380.15 107.47 434.12 107.47 434.12 122.48 414.88 122.48 414.88 174.82"/><path class="cls-1" d="M466.74,107.47v40.12c0,4.04,1.06,7.22,3.27,9.43,2.21,2.21,5.2,3.37,8.95,3.37s6.74-1.15,8.95-3.37c2.21-2.21,3.37-5.39,3.37-9.43v-40.12h15.49v40.12c0,4.14-.67,7.89-2.02,11.35-1.35,3.46-3.27,6.35-5.68,8.76-2.41,2.41-5.39,4.33-8.76,5.68-3.46,1.35-7.22,2.02-11.35,2.02s-7.89-.67-11.35-2.02c-3.46-1.35-6.35-3.27-8.76-5.68-2.41-2.41-4.33-5.39-5.68-8.76-1.35-3.46-2.02-7.22-2.02-11.35v-40.12h15.59Z"/><polygon class="cls-1" points="585.95 107.47 585.95 174.82 572.1 174.82 544.87 135.28 544.87 174.82 529.28 174.82 529.28 107.47 543.23 107.47 570.46 147.02 570.46 107.47 585.95 107.47"/><rect class="cls-1" x="609.52" y="107.47" width="15.49" height="67.35"/><polygon class="cls-1" points="677.93 174.82 662.44 174.82 662.44 122.48 643.2 122.48 643.2 107.47 697.18 107.47 697.18 122.48 677.93 122.48 677.93 174.82"/><polygon class="cls-1" points="731.43 149.71 708.91 107.47 725.56 107.47 739.22 134.22 752.79 107.47 769.43 107.47 746.92 149.71 746.92 174.82 731.43 174.82 731.43 149.71"/><polygon class="cls-1" points="6.93 214.37 53.5 214.37 53.5 229.38 22.42 229.38 22.42 243.23 47.63 243.23 47.63 258.24 22.42 258.24 22.42 281.72 6.93 281.72 6.93 214.37"/><path class="cls-1" d="M87.65,214.37v40.12c0,4.04,1.06,7.22,3.27,9.43,2.21,2.21,5.2,3.37,8.95,3.37s6.74-1.15,8.95-3.37c2.21-2.21,3.37-5.39,3.37-9.43v-40.12h15.49v40.12c0,4.14-.67,7.89-2.02,11.35-1.35,3.46-3.27,6.35-5.68,8.76-2.41,2.41-5.39,4.33-8.76,5.68-3.46,1.35-7.22,2.02-11.35,2.02s-7.89-.67-11.35-2.02c-3.46-1.35-6.35-3.27-8.76-5.68-2.41-2.41-4.33-5.39-5.68-8.76-1.35-3.46-2.02-7.22-2.02-11.35v-40.12h15.59Z"/><polygon class="cls-1" points="206.96 214.37 206.96 281.72 193.01 281.72 165.78 242.17 165.78 281.72 150.29 281.72 150.29 214.37 164.14 214.37 191.37 253.91 191.37 214.37 206.96 214.37"/><path class="cls-1" d="M253.43,266.8c2.6,0,4.91-.48,7.12-1.44,2.21-.96,4.14-2.31,5.77-3.94,1.64-1.64,2.89-3.56,3.85-5.87.96-2.31,1.35-4.81,1.35-7.5s-.48-5.1-1.35-7.41c-.96-2.31-2.21-4.33-3.85-5.97-1.64-1.64-3.56-2.98-5.77-3.85-2.21-.96-4.62-1.44-7.12-1.44h-7.5v37.43s7.5,0,7.5,0ZM230.44,214.37h23c4.71,0,9.14.87,13.18,2.6,4.04,1.73,7.6,4.14,10.68,7.22,3.08,3.08,5.48,6.64,7.22,10.68s2.6,8.47,2.6,13.18-.87,9.04-2.6,13.18c-1.73,4.04-4.14,7.6-7.22,10.68-3.08,3.08-6.64,5.48-10.68,7.22-4.04,1.73-8.47,2.6-13.18,2.6h-23v-67.35Z"/><polygon class="cls-4" points="729.5 281.72 823.22 281.72 823.22 188 729.5 281.72"/><polygon class="cls-3" points="916.93 281.72 1010.65 281.72 1010.65 188 916.93 281.72"/><polygon class="cls-2" points="916.93 94.29 1010.65 94.29 1010.65 .58 916.93 94.29"/><polygon class="cls-1" points="823.22 188 1010.65 188 916.93 94.29 823.22 188"/></g></g></svg>