<svg width="202" height="37" viewBox="0 0 202 37" fill="none" xmlns="http://www.w3.org/2000/svg">
  <g clip-path="url(#clip0_859_436)">
    <path
      d="M198.8 7.06022C198.8 6.11105 199.521 5.40503 200.4 5.40503C201.279 5.40503 202 6.10812 202 7.06022C202 8.01231 201.279 8.7154 200.4 8.7154C199.521 8.7154 198.8 8.01817 198.8 7.06022ZM201.726 7.06022C201.726 6.24581 201.167 5.64525 200.4 5.64525C199.633 5.64525 199.074 6.24581 199.074 7.06022C199.074 7.87463 199.633 8.47518 200.4 8.47518C201.167 8.47518 201.726 7.88048 201.726 7.06022ZM199.774 6.16378H200.567C200.884 6.16378 201.112 6.36885 201.112 6.65594C201.112 6.85515 201.011 7.0192 200.789 7.07193V7.07779C200.956 7.12466 201.037 7.22134 201.057 7.43227C201.083 7.67835 201.072 7.86291 201.132 7.88927V7.90978H200.803C200.757 7.88927 200.737 7.69007 200.729 7.5055C200.723 7.32094 200.613 7.20376 200.4 7.20376H200.117V7.90685H199.774V6.15792V6.16378ZM200.117 6.94303H200.495C200.682 6.94303 200.778 6.8405 200.778 6.69695C200.778 6.55341 200.682 6.45087 200.495 6.45087H200.117V6.94303Z"
      fill="#201F1D" />
    <path
      d="M105.287 5.34936C106.913 5.34936 108.479 5.32007 110.041 5.37866C110.309 5.39038 110.635 5.73606 110.811 6.01144C114.769 12.0814 118.707 18.1602 122.654 24.239C122.749 24.3855 122.853 24.5261 123.069 24.8366V5.40796H127.356V31.9437C125.961 31.9437 124.58 31.973 123.202 31.9173C122.954 31.9056 122.654 31.5804 122.49 31.3255C118.298 24.8308 114.123 18.3243 109.94 11.8236C109.868 11.7094 109.767 11.6127 109.565 11.3696V31.8997H105.287V5.34936Z"
      fill="#201F1D" />
    <path
      d="M102.294 18.5176C102.188 23.6677 100.429 27.9741 95.8537 30.6429C88.701 34.8117 77.587 31.7913 76.1282 20.7352C75.69 17.3985 76.0965 14.1848 77.7283 11.2406C80.176 6.81997 84.0709 4.71071 88.9835 4.67262C94.072 4.63454 98.0909 6.75845 100.619 11.3666C101.83 13.5725 102.332 15.9835 102.294 18.5176ZM97.7594 17.9288C97.6758 17.3809 97.6123 16.2706 97.3212 15.2219C96.3813 11.8353 94.3171 9.4917 90.8113 8.85599C87.2826 8.21736 84.2583 9.27199 82.2056 12.3685C80.3115 15.2277 80.0837 18.4326 80.8881 21.6991C82.3872 27.7866 89.2199 30.4174 94.098 26.7759C96.831 24.737 97.6959 21.7752 97.7565 17.9288H97.7594Z"
      fill="#201F1D" />
    <path
      d="M155.746 22.6189C156.037 24.4909 156.726 25.9996 158.176 26.9986C160.69 28.727 163.397 28.9409 166.174 27.7573C167.376 27.2447 168.18 26.316 168.269 24.901C168.359 23.5007 167.673 22.4725 166.517 21.9451C164.602 21.0721 162.593 20.4159 160.641 19.6279C159.081 18.9951 157.487 18.4092 156.011 17.6065C153.751 16.379 152.592 14.3635 152.672 11.7445C152.753 9.06984 154.062 7.11877 156.377 5.86493C160.396 3.68829 166.626 4.31814 170.138 7.25939C171.297 8.22907 172.101 9.45947 172.64 10.9799C171.311 11.6595 170.025 12.3158 168.811 12.9339C168.281 12.0638 167.88 11.1322 167.243 10.4145C165.34 8.27594 161.12 7.77499 158.695 9.30127C156.815 10.4848 156.663 12.7903 158.574 13.9211C160.085 14.8147 161.832 15.3039 163.475 15.9689C165.456 16.7716 167.531 17.3868 169.397 18.4033C174.52 21.1922 173.73 28.1177 169.601 30.6839C164.989 33.549 157.323 32.7698 153.63 28.8969C152.598 27.8159 151.923 26.5328 151.629 25.0651C151.586 24.8483 151.73 24.444 151.9 24.3591C153.116 23.7673 154.362 23.2341 155.74 22.6219L155.746 22.6189Z"
      fill="#201F1D" />
    <path
      d="M51.1533 5.39917H55.4259V16.5871H68.6733V5.42261H73.0064V31.8851H68.7281V20.7001H55.4663V31.8968H51.1533V5.39917Z"
      fill="#201F1D" />
    <path
      d="M136.023 27.98H150.216V31.8704H131.655V5.42261H150.21V9.3101H136.023V16.6925H148.022V20.539H136.023V27.98Z"
      fill="#201F1D" />
    <path
      d="M196.673 5.40503V9.30424H187.649V31.8821H183.255V9.35111H174.183V5.40796H196.67L196.673 5.40503Z"
      fill="#201F1D" />
    <path
      d="M17.6291 20.6562C17.6291 19.7041 17.5512 18.749 17.3436 17.8233C16.2395 12.9105 12.4425 9.73779 6.41132 9.73779C6.41132 15.6144 6.14032 20.9989 13.8639 20.9989H14.3424C9.34045 21.1483 8.908 24.5642 8.908 29.02C16.0867 29.02 17.6262 25.4752 17.6262 21.3417V21.0018V20.6591L17.6291 20.6562Z"
      fill="#201F1D" />
    <path
      d="M18.7822 20.6562C18.7822 19.7041 18.8601 18.749 19.0676 17.8233C20.1718 12.9105 23.9687 9.73779 30 9.73779C30 15.6144 30.271 20.9989 22.5474 20.9989H22.0688C27.0708 21.1483 27.5033 24.5642 27.5033 29.02C20.3246 29.02 18.7851 25.4752 18.7851 21.3417V21.0018V20.6591L18.7822 20.6562Z"
      fill="#201F1D" />
    <path
      d="M31.5742 33.7805H33.0013V34.0705H32.4564V35.5382H32.1191V34.0705H31.5742V33.7805ZM33.2838 33.7805H33.7682L34.143 35.1193H34.1487L34.5293 33.7805H35.0194V35.5353H34.7052V34.1907H34.6936C34.6936 34.1907 34.6215 34.466 34.5552 34.6887L34.3073 35.5353H33.9873L33.7393 34.6887C33.6788 34.4865 33.6067 34.1907 33.6067 34.1907H33.5952V35.5353H33.2867V33.7805H33.2838Z"
      fill="#201F1D" />
    <path
      d="M18.2061 1.28899C27.547 1.28899 35.1437 9.01124 35.1437 18.5C35.1437 27.9888 27.5441 35.711 18.2061 35.711C8.8681 35.711 1.26852 27.9917 1.26852 18.5C1.26852 9.00831 8.8681 1.28899 18.2061 1.28899ZM18.2061 0C8.15023 0 0 8.28179 0 18.5C0 28.7182 8.15023 37 18.2061 37C28.262 37 36.4122 28.7182 36.4122 18.5C36.4122 8.28179 28.262 0 18.2061 0Z"
      fill="#201F1D" />
  </g>
  <defs>
    <clipPath id="clip0_859_436">
      <rect width="202" height="37" fill="white" />
    </clipPath>
  </defs>
</svg>